<?xml version="1.0" standalone="no"?>
<!DOCTYPE svg PUBLIC "-//W3C//DTD SVG 20010904//EN"
 "http://www.w3.org/TR/2001/REC-SVG-20010904/DTD/svg10.dtd">
<svg version="1.0" xmlns="http://www.w3.org/2000/svg"
 width="1600.000000pt" height="1200.000000pt" viewBox="0 0 1600.000000 1200.000000"
 preserveAspectRatio="xMidYMid meet">

<g transform="translate(0.000000,1200.000000) scale(0.100000,-0.100000)"
fill="#000000" stroke="none">
<path d="M8378 9474 c-78 -42 -58 -158 26 -158 46 0 84 36 92 86 5 30 2 41
-19 62 -29 29 -59 32 -99 10z"/>
<path d="M7117 9340 c-147 -26 -251 -135 -251 -260 1 -63 20 -106 63 -143 40
-33 76 -44 189 -56 51 -6 104 -16 119 -23 66 -31 60 -107 -11 -139 -52 -23
-96 -23 -166 1 -30 10 -56 18 -57 17 -6 -7 -43 -110 -43 -122 0 -7 25 -23 58
-35 186 -71 381 53 382 243 0 96 -44 158 -130 185 -19 6 -77 16 -128 21 -108
12 -143 26 -156 63 -26 75 89 117 235 86 9 -2 17 22 26 77 7 43 10 81 8 83 -9
9 -93 10 -138 2z"/>
<path d="M7835 9241 c-50 -22 -111 -89 -138 -150 -29 -65 -36 -205 -12 -267
66 -174 243 -180 351 -10 18 29 18 29 -10 53 l-29 24 -26 -25 c-62 -59 -132
-51 -166 19 -24 52 -25 154 -1 189 29 45 66 52 143 30 19 -5 26 2 53 55 17 34
28 66 25 71 -8 13 -73 30 -115 30 -19 0 -53 -9 -75 -19z"/>
<path d="M8344 9223 l-32 -4 -7 -122 c-4 -67 -18 -183 -31 -257 -12 -74 -22
-135 -21 -136 1 -1 34 0 74 3 l71 6 7 106 c6 92 33 297 51 384 5 26 5 27 -38
25 -24 0 -57 -3 -74 -5z"/>
<path d="M8853 9075 c-101 -51 -180 -169 -190 -286 -17 -179 143 -281 315
-199 34 16 62 31 62 33 0 3 -7 21 -15 41 -13 30 -19 35 -33 27 -9 -5 -38 -12
-63 -16 -64 -9 -115 13 -134 59 -15 36 -20 78 -10 88 3 3 65 -7 138 -23 151
-32 149 -32 188 49 29 63 31 142 3 179 -55 75 -166 95 -261 48z m135 -95 c25
-24 26 -34 11 -79 -10 -28 -15 -31 -38 -27 -14 3 -54 11 -88 17 -35 6 -63 16
-63 21 0 6 17 28 39 49 32 32 46 39 78 39 26 0 47 -7 61 -20z"/>
<path d="M9485 8745 c-26 -52 -85 -149 -131 -216 -46 -66 -84 -124 -84 -128 0
-4 29 -19 64 -33 l65 -26 83 145 83 145 44 -6 c49 -7 85 -26 100 -54 14 -26
-13 -80 -109 -217 -45 -64 -78 -120 -73 -124 12 -11 123 -54 127 -50 1 2 27
47 56 99 30 52 77 130 106 173 64 94 75 137 48 186 -29 53 -75 73 -159 68 -38
-2 -78 -7 -89 -12 -16 -7 -15 -2 9 38 14 26 25 52 23 58 -3 10 -91 49 -109 49
-4 0 -28 -43 -54 -95z"/>
<path d="M6103 8649 c-24 -11 -56 -36 -73 -55 -29 -34 -90 -143 -90 -163 0 -5
16 -19 36 -32 30 -18 38 -19 45 -8 5 8 9 17 9 21 0 14 64 79 91 94 41 21 66
17 96 -12 l27 -27 -25 -19 c-98 -77 -131 -131 -131 -210 0 -86 75 -156 155
-145 73 10 137 79 137 148 0 22 2 39 5 39 2 0 19 -9 37 -20 18 -11 38 -20 43
-20 9 0 65 83 65 95 0 3 -19 17 -42 32 -24 17 -77 75 -127 143 -122 162 -165
185 -258 139z m218 -290 c21 -30 21 -31 3 -70 -10 -23 -30 -47 -47 -55 -25
-14 -31 -14 -52 0 -32 21 -48 52 -40 77 5 14 95 78 112 79 1 0 11 -14 24 -31z"/>
<path d="M10140 8245 c-103 -32 -206 -133 -231 -227 -35 -129 87 -240 231
-211 43 8 45 10 48 46 3 35 2 37 -28 37 -63 0 -110 41 -110 95 0 68 107 175
175 175 18 0 85 -58 85 -74 0 -6 4 -17 9 -25 7 -12 20 -11 79 3 l70 18 -11 33
c-15 49 -64 105 -111 126 -49 22 -141 24 -206 4z"/>
<path d="M5441 8185 c-17 -30 -31 -59 -31 -64 0 -5 18 -25 41 -46 l41 -37 -20
-21 -21 -22 30 -35 29 -35 24 29 24 29 89 -75 c48 -42 99 -88 113 -103 79 -86
201 -68 230 33 15 56 12 82 -12 103 -29 24 -45 24 -53 0 -3 -10 -14 -26 -25
-36 -16 -15 -25 -16 -44 -7 -29 13 -206 170 -206 183 0 5 16 27 36 49 l36 39
-29 36 -28 36 -46 -52 -45 -51 -43 51 c-24 28 -47 51 -51 51 -4 0 -22 -25 -39
-55z"/>
<path d="M10533 7730 c-155 -32 -264 -148 -250 -266 10 -89 105 -181 200 -191
43 -5 45 -4 56 27 13 39 16 34 -40 63 -50 27 -89 77 -89 117 0 28 36 91 56 97
6 2 40 -36 74 -84 80 -111 99 -133 120 -133 38 0 141 62 167 101 53 80 9 199
-90 244 -60 27 -144 37 -204 25z m132 -94 c42 -18 69 -65 56 -98 -5 -13 -22
-31 -39 -41 l-30 -17 -51 65 c-28 35 -52 70 -53 76 -6 26 68 35 117 15z"/>
<path d="M5215 7626 c-41 -18 -92 -77 -105 -123 -6 -21 -13 -74 -17 -119 l-6
-81 43 -7 c50 -8 60 1 60 52 0 99 83 173 144 129 17 -13 17 -16 -9 -67 -60
-119 -37 -232 58 -279 58 -29 103 -23 152 20 53 47 64 100 39 187 -6 20 -3 22
39 22 50 0 57 10 57 81 0 36 -1 37 -46 44 -26 4 -106 37 -183 75 -151 76 -182
86 -226 66z m255 -221 c38 -20 47 -63 23 -113 -14 -30 -24 -38 -50 -40 -35 -4
-73 25 -73 56 0 18 55 112 65 112 3 0 19 -7 35 -15z"/>
<path d="M4853 6880 c-93 -19 -175 -86 -207 -171 -9 -24 -29 -114 -45 -199
-25 -139 -26 -156 -12 -162 9 -4 113 -21 231 -39 118 -17 270 -44 338 -60 68
-16 129 -29 137 -29 9 0 22 38 40 113 34 139 32 256 -4 325 -28 54 -85 118
-133 148 -87 55 -256 91 -345 74z m260 -179 c72 -28 121 -74 138 -129 11 -37
10 -54 -5 -117 -13 -56 -22 -75 -34 -75 -32 0 -194 29 -344 61 l-150 32 6 56
c10 84 46 155 93 181 33 18 51 20 138 17 72 -3 116 -11 158 -26z"/>
<path d="M11023 6829 c-18 -12 -33 -22 -33 -24 0 -2 13 -25 30 -52 39 -63 49
-130 24 -161 -11 -12 -34 -25 -51 -28 -28 -6 -33 -4 -33 13 0 86 -78 203 -151
225 -73 21 -159 -22 -180 -92 -21 -71 11 -146 83 -190 l28 -17 -40 -27 c-27
-17 -38 -31 -33 -39 34 -54 59 -87 66 -87 4 0 24 11 45 25 26 17 83 34 181 55
156 33 189 47 216 92 24 41 22 126 -6 180 -24 49 -96 148 -107 148 -4 0 -22
-10 -39 -21z m-174 -158 c10 -10 21 -41 25 -71 8 -61 0 -72 -54 -68 -26 2 -40
11 -57 37 -30 45 -29 75 3 100 33 26 58 27 83 2z"/>
<path d="M10711 6023 c0 -15 4 -48 7 -73 l7 -45 162 -5 c89 -3 167 -9 172 -15
5 -5 16 -32 23 -58 11 -41 10 -52 -3 -75 -12 -23 -22 -28 -64 -30 -48 -3 -249
13 -309 24 -26 6 -28 4 -23 -22 3 -16 9 -50 12 -76 l6 -48 117 0 c64 0 156 -5
205 -11 98 -12 140 -4 176 35 49 52 33 151 -37 228 l-34 38 55 0 c31 0 57 3
60 8 2 4 -1 34 -5 67 l-9 60 -122 -3 c-107 -3 -289 9 -369 24 -25 5 -28 3 -27
-23z"/>
<path d="M5291 5864 c-24 -20 -38 -47 -62 -125 -17 -54 -35 -102 -41 -105 -5
-4 -35 18 -66 49 -32 30 -73 63 -92 73 -37 18 -108 24 -152 11 -27 -7 -28 -6
-28 33 l0 40 -44 0 -45 0 5 -142 c6 -163 19 -211 73 -271 47 -52 102 -77 171
-77 94 0 160 60 160 147 l0 42 34 -20 34 -20 29 25 30 25 18 -40 c55 -121 176
-145 227 -45 43 84 18 266 -48 353 -58 76 -145 96 -203 47z m141 -138 c26 -32
39 -106 27 -150 -19 -68 -72 -62 -112 13 -29 53 -33 81 -16 114 32 61 65 68
101 23z m-387 -91 c36 -35 35 -112 0 -145 -33 -31 -106 -34 -135 -4 -23 23
-36 80 -26 118 14 55 117 76 161 31z"/>
<path d="M10665 5262 c-91 -44 -115 -111 -72 -206 l26 -56 -61 0 -61 0 7 -37
c3 -21 6 -48 6 -60 0 -19 7 -22 58 -28 31 -4 83 -16 116 -27 44 -14 415 -154
567 -213 14 -5 19 5 29 65 7 39 10 73 7 76 -2 2 -60 21 -129 41 l-126 36 19
41 c42 92 12 204 -77 286 -91 84 -228 120 -309 82z m186 -133 c53 -18 97 -55
104 -89 5 -21 -1 -46 -19 -86 -29 -63 -13 -62 -161 -9 l-90 33 -3 56 c-3 49 0
59 22 81 28 28 87 34 147 14z"/>
<path d="M5300 5060 c-52 -27 -132 -63 -178 -81 -98 -38 -142 -79 -142 -135 0
-67 46 -121 140 -163 l44 -20 -33 -18 c-68 -38 -67 -35 -32 -86 40 -59 46 -62
79 -39 62 43 185 103 302 147 69 26 127 49 129 51 6 5 -71 114 -81 114 -5 0
-49 -20 -99 -45 -49 -25 -114 -56 -143 -69 l-54 -24 -31 26 c-17 15 -38 44
-46 65 -15 37 -15 38 12 66 18 18 82 48 179 86 l152 59 -39 58 c-22 32 -45 58
-52 57 -7 0 -55 -22 -107 -49z"/>
<path d="M5619 4387 c-58 -45 -151 -111 -207 -147 -56 -36 -102 -67 -102 -70
0 -3 22 -28 49 -54 l49 -49 109 85 c59 47 153 113 208 148 55 34 102 65 104
67 5 4 -90 103 -99 103 -3 0 -53 -37 -111 -83z"/>
<path d="M10084 4278 c-60 -73 -116 -141 -123 -151 -13 -16 -10 -22 26 -58
l40 -41 78 96 c42 53 82 96 87 96 12 0 158 -111 158 -120 0 -4 -27 -40 -60
-81 -33 -40 -60 -76 -60 -79 0 -3 17 -23 39 -44 l38 -37 64 80 c35 44 68 79
72 78 13 -4 136 -111 136 -120 1 -4 -33 -48 -75 -99 l-76 -91 38 -38 c21 -22
41 -39 44 -39 3 0 40 42 81 93 42 50 99 120 128 154 l52 62 -198 154 c-109 85
-237 191 -286 236 -48 45 -89 81 -91 81 -2 0 -52 -60 -112 -132z"/>
<path d="M5154 4081 c-38 -23 -46 -48 -29 -89 25 -58 99 -71 147 -25 36 34 36
72 2 107 -32 31 -76 34 -120 7z"/>
<path d="M5945 3979 c-61 -67 -105 -107 -113 -104 -7 3 -22 5 -32 5 -10 0 -39
16 -64 35 -26 19 -50 35 -54 35 -4 0 -34 -24 -67 -54 l-60 -54 40 -17 c31 -14
58 -16 119 -12 l78 5 -29 -31 c-15 -18 -39 -44 -51 -58 l-23 -26 57 -37 c31
-21 59 -34 63 -29 4 4 34 41 66 82 33 40 109 119 170 174 60 56 111 105 113
108 2 4 -23 25 -55 47 l-59 40 -99 -109z"/>
<path d="M9666 3851 l-49 -50 96 -128 c54 -70 97 -134 97 -142 0 -25 -43 -80
-77 -98 -29 -15 -33 -15 -56 0 -13 9 -64 78 -112 154 -48 76 -90 140 -92 143
-2 2 -27 -19 -55 -47 l-52 -52 82 -108 c44 -59 100 -137 124 -173 54 -82 100
-108 158 -91 60 18 102 81 125 185 l6 28 36 -41 36 -42 43 42 c24 24 44 46 44
50 0 4 -34 46 -75 94 -41 48 -107 141 -147 206 -40 65 -75 119 -78 119 -3 0
-28 -22 -54 -49z"/>
<path d="M6322 3759 c-24 -7 -32 -14 -28 -25 3 -9 6 -27 6 -40 0 -22 4 -24 50
-24 97 0 150 -41 150 -115 0 -76 -6 -77 -138 -7 -66 34 -122 62 -126 62 -16 0
-89 -78 -108 -114 -24 -48 -21 -120 8 -158 42 -56 81 -73 168 -73 97 1 154 26
227 100 70 70 94 125 94 212 0 64 -3 75 -31 109 -43 54 -96 78 -174 81 -36 1
-80 -2 -98 -8z m48 -304 c78 -39 80 -50 21 -83 -48 -27 -77 -28 -118 -2 -37
22 -44 60 -17 98 20 29 32 28 114 -13z"/>
<path d="M8860 3682 c-120 -32 -216 -108 -241 -191 -10 -33 -9 -47 2 -78 20
-53 58 -71 178 -85 65 -7 105 -17 108 -25 3 -7 -11 -35 -31 -62 -69 -94 -84
-176 -46 -251 l20 -38 -40 -7 c-45 -8 -44 -6 -29 -57 11 -43 12 -43 67 -24 22
8 76 21 120 29 97 19 148 44 192 93 44 50 63 98 63 161 0 63 -27 119 -74 151
-28 20 -44 23 -91 20 -54 -4 -72 2 -48 17 6 3 10 20 10 36 0 22 -7 32 -25 41
l-25 11 54 57 c59 62 75 104 54 146 -32 65 -110 85 -218 56z m90 -112 c11 -11
20 -25 20 -32 0 -6 -22 -33 -50 -60 -54 -52 -77 -58 -135 -34 -66 28 -38 98
50 130 56 20 92 19 115 -4z m120 -370 c28 -15 53 -90 41 -122 -17 -45 -111
-78 -151 -53 -22 14 -51 93 -44 121 12 49 103 81 154 54z"/>
<path d="M6947 3450 c-71 -28 -77 -34 -64 -76 9 -30 14 -34 34 -29 66 16 111
17 141 1 44 -22 62 -54 62 -104 0 -37 -3 -44 -17 -40 -193 51 -252 61 -268 48
-24 -20 -62 -99 -69 -145 -15 -92 70 -175 179 -175 168 0 335 221 295 391 -29
122 -162 180 -293 129z m65 -307 c43 -9 78 -21 78 -27 0 -6 -7 -20 -15 -30
-70 -93 -208 -61 -175 39 13 41 11 40 112 18z"/>
<path d="M7599 3313 l-36 -4 -9 -162 c-5 -89 -9 -195 -9 -235 0 -71 1 -75 33
-103 55 -49 148 -37 224 30 20 17 38 31 42 31 3 0 6 -25 6 -56 l0 -57 46 7
c26 3 55 6 66 6 18 0 19 6 13 93 -6 82 14 351 31 410 6 19 -18 22 -100 11
l-46 -7 0 -101 c0 -55 -3 -131 -6 -167 -6 -63 -8 -66 -39 -77 -17 -7 -50 -12
-73 -12 -34 0 -45 5 -59 26 -16 25 -16 35 1 178 10 83 20 161 23 174 5 20 2
22 -33 20 -22 -1 -55 -3 -75 -5z"/>
<path d="M8346 3299 c-33 -11 -61 -21 -63 -22 -2 -2 8 -69 21 -148 14 -79 28
-195 32 -256 3 -62 10 -113 13 -113 4 0 35 9 69 21 43 15 62 26 62 38 0 9 -9
66 -20 126 -16 89 -39 303 -40 363 0 15 -1 15 -74 -9z"/>
<path d="M8375 2658 c-22 -26 -26 -39 -22 -70 7 -51 22 -68 64 -68 45 0 69 14
89 51 30 59 -4 119 -67 119 -30 0 -43 -6 -64 -32z"/>
</g>
</svg>
